<svg width="41" height="41" viewBox="0 0 41 41" fill="none" xmlns="http://www.w3.org/2000/svg">
<path fill-rule="evenodd" clip-rule="evenodd" d="M30.0329 3.51678C31.801 3.51678 33.4967 4.21916 34.7469 5.46941C35.9971 6.71965 36.6995 8.41534 36.6995 10.1835L36.6995 30.1835C36.6995 31.9516 35.9971 33.6473 34.7469 34.8975C33.4967 36.1477 31.801 36.8501 30.0329 36.8501L10.0329 36.8501C8.26475 36.8501 6.56906 36.1477 5.31881 34.8975C4.06857 33.6473 3.36619 31.9516 3.36619 30.1835L3.36619 10.1835C3.36619 8.41534 4.06857 6.71965 5.31881 5.46941C6.56906 4.21916 8.26475 3.51678 10.0329 3.51678L30.0329 3.51678ZM33.3662 10.1835C33.3662 9.2994 33.015 8.45155 32.3899 7.82643C31.7648 7.20131 30.9169 6.85012 30.0329 6.85012L10.0329 6.85012C9.1488 6.85012 8.30096 7.20131 7.67584 7.82643C7.05071 8.45155 6.69952 9.2994 6.69952 10.1835L6.69952 30.1835C6.69952 31.0675 7.05071 31.9154 7.67584 32.5405C8.30096 33.1656 9.1488 33.5168 10.0329 33.5168H30.0329C30.9169 33.5168 31.7648 33.1656 32.3899 32.5405C33.015 31.9154 33.3662 31.0675 33.3662 30.1835L33.3662 10.1835ZM25.0329 20.1835C25.0329 18.8574 24.5061 17.5856 23.5684 16.6479C22.6307 15.7102 21.3589 15.1835 20.0329 15.1835C18.7068 15.1835 17.435 15.7102 16.4973 16.6479C15.5596 17.5856 15.0329 18.8574 15.0329 20.1835C15.0329 21.5095 15.5596 22.7813 16.4973 23.719C17.435 24.6567 18.7068 25.1835 20.0329 25.1835C21.3589 25.1835 22.6307 24.6567 23.5684 23.719C24.5061 22.7813 25.0329 21.5095 25.0329 20.1835ZM20.0329 11.8501C22.243 11.8501 24.3626 12.7281 25.9254 14.2909C27.4882 15.8537 28.3662 17.9733 28.3662 20.1835C28.3662 22.3936 27.4882 24.5132 25.9254 26.076C24.3626 27.6388 22.243 28.5168 20.0329 28.5168C17.8227 28.5168 15.7031 27.6388 14.1403 26.076C12.5775 24.5132 11.6995 22.3936 11.6995 20.1835C11.6995 17.9733 12.5775 15.8537 14.1403 14.2909C15.7031 12.7281 17.8227 11.8501 20.0329 11.8501ZM26.6995 29.3501C26.6995 30.0132 26.9629 30.649 27.4318 31.1179C27.9006 31.5867 28.5365 31.8501 29.1995 31.8501C29.8626 31.8501 30.4985 31.5867 30.9673 31.1179C31.4361 30.649 31.6995 30.0132 31.6995 29.3501C31.6995 28.6871 31.4361 28.0512 30.9673 27.5824C30.4985 27.1135 29.8626 26.8501 29.1995 26.8501C28.5365 26.8501 27.9006 27.1135 27.4318 27.5824C26.9629 28.0512 26.6995 28.6871 26.6995 29.3501Z" fill="white"/>
</svg>
