<svg width="40" height="41" viewBox="0 0 40 41" fill="none" xmlns="http://www.w3.org/2000/svg">
<path fill-rule="evenodd" clip-rule="evenodd" d="M36.6666 10.0699C36.6666 8.30182 35.9642 6.60612 34.7139 5.35588C33.4637 4.10564 31.768 3.40326 29.9999 3.40326L9.9999 3.40326C8.23179 3.40326 6.53609 4.10564 5.28585 5.35588C4.03561 6.60612 3.33323 8.30182 3.33323 10.0699L3.33323 30.0699C3.33323 31.838 4.03561 33.5337 5.28585 34.784C6.53609 36.0342 8.23179 36.7366 9.9999 36.7366L29.9999 36.7366C31.768 36.7366 33.4637 36.0342 34.7139 34.784C35.9642 33.5337 36.6666 31.838 36.6666 30.0699L36.6666 10.0699ZM29.9999 6.73659C30.884 6.73659 31.7318 7.08778 32.3569 7.7129C32.982 8.33802 33.3332 9.18587 33.3332 10.0699L33.3332 30.0699C33.3332 30.954 32.982 31.8018 32.3569 32.4269C31.7318 33.0521 30.884 33.4033 29.9999 33.4033H9.9999C9.11584 33.4033 8.268 33.0521 7.64288 32.4269C7.01775 31.8018 6.66656 30.954 6.66656 30.0699L6.66656 10.0699C6.66656 9.18587 7.01775 8.33802 7.64288 7.7129C8.268 7.08778 9.11584 6.73659 9.9999 6.73659L29.9999 6.73659ZM21.6666 15.0699C22.1086 15.0699 22.5325 14.8943 22.8451 14.5818C23.1576 14.2692 23.3332 13.8453 23.3332 13.4033C23.3332 12.9612 23.1576 12.5373 22.8451 12.2247C22.5325 11.9122 22.1086 11.7366 21.6666 11.7366L11.6666 11.7366C11.2245 11.7366 10.8006 11.9122 10.4881 12.2247C10.1755 12.5373 9.9999 12.9612 9.9999 13.4033C9.9999 13.8453 10.1755 14.2692 10.4881 14.5818C10.8006 14.8943 11.2245 15.0699 11.6666 15.0699L21.6666 15.0699ZM27.4999 15.9033C26.8369 15.9033 26.201 15.6399 25.7321 15.171C25.2633 14.7022 24.9999 14.0663 24.9999 13.4033C24.9999 12.7402 25.2633 12.1043 25.7321 11.6355C26.201 11.1667 26.8369 10.9033 27.4999 10.9033C28.1629 10.9033 28.7988 11.1667 29.2677 11.6355C29.7365 12.1043 29.9999 12.7402 29.9999 13.4033C29.9999 14.0663 29.7365 14.7022 29.2677 15.171C28.7988 15.6399 28.1629 15.9033 27.4999 15.9033ZM23.3332 20.0699C23.3332 20.6366 23.0499 21.1366 22.6199 21.4366C23.0881 22.2956 23.3333 23.2583 23.3332 24.2366C23.3332 27.8366 20.1232 30.0699 17.3816 30.0699H11.6666C11.2245 30.0699 10.8006 29.8943 10.4881 29.5818C10.1755 29.2692 9.9999 28.8453 9.9999 28.4033C9.9999 27.9612 10.1755 27.5373 10.4881 27.2247C10.8006 26.9122 11.2245 26.7366 11.6666 26.7366H17.3832C18.6632 26.7366 20.0016 25.6366 20.0016 24.2366C20.0016 23.3633 19.5266 22.3983 18.3966 21.7366H11.6666C11.2245 21.7366 10.8006 21.561 10.4881 21.2484C10.1755 20.9359 9.9999 20.512 9.9999 20.0699C9.9999 19.6279 10.1755 19.204 10.4881 18.8914C10.8006 18.5789 11.2245 18.4033 11.6666 18.4033L21.6666 18.4033C22.1086 18.4033 22.5325 18.5789 22.8451 18.8914C23.1576 19.204 23.3332 19.6279 23.3332 20.0699Z" fill="white"/>
</svg>
