<svg width="40" height="40" viewBox="0 0 40 40" fill="none" xmlns="http://www.w3.org/2000/svg">
<path fill-rule="evenodd" clip-rule="evenodd" d="M10 3.33331C8.23193 3.33331 6.53624 4.03569 5.286 5.28593C4.03575 6.53618 3.33337 8.23187 3.33337 9.99998V30C3.33337 31.7681 4.03575 33.4638 5.286 34.714C6.53624 35.9643 8.23193 36.6666 10 36.6666H30C31.7682 36.6666 33.4638 35.9643 34.7141 34.714C35.9643 33.4638 36.6667 31.7681 36.6667 30V9.99998C36.6667 8.23187 35.9643 6.53618 34.7141 5.28593C33.4638 4.03569 31.7682 3.33331 30 3.33331H10ZM6.66671 9.99998C6.66671 9.11592 7.0179 8.26808 7.64302 7.64296C8.26814 7.01784 9.11599 6.66665 10 6.66665H30C30.8841 6.66665 31.7319 7.01784 32.3571 7.64296C32.9822 8.26808 33.3334 9.11592 33.3334 9.99998V30C33.3334 30.884 32.9822 31.7319 32.3571 32.357C31.7319 32.9821 30.8841 33.3333 30 33.3333H10C9.11599 33.3333 8.26814 32.9821 7.64302 32.357C7.0179 31.7319 6.66671 30.884 6.66671 30V9.99998ZM15 18.3333C15 17.8913 14.8244 17.4674 14.5119 17.1548C14.1993 16.8422 13.7754 16.6666 13.3334 16.6666C12.8913 16.6666 12.4674 16.8422 12.1549 17.1548C11.8423 17.4674 11.6667 17.8913 11.6667 18.3333V28.3333C11.6667 28.7753 11.8423 29.1993 12.1549 29.5118C12.4674 29.8244 12.8913 30 13.3334 30C13.7754 30 14.1993 29.8244 14.5119 29.5118C14.8244 29.1993 15 28.7753 15 28.3333V18.3333ZM15.8334 12.5C15.8334 13.163 15.57 13.7989 15.1011 14.2677C14.6323 14.7366 13.9964 15 13.3334 15C12.6703 15 12.0344 14.7366 11.5656 14.2677C11.0968 13.7989 10.8334 13.163 10.8334 12.5C10.8334 11.8369 11.0968 11.2011 11.5656 10.7322C12.0344 10.2634 12.6703 9.99998 13.3334 9.99998C13.9964 9.99998 14.6323 10.2634 15.1011 10.7322C15.57 11.2011 15.8334 11.8369 15.8334 12.5ZM20 16.6666C20.5667 16.6666 21.0667 16.95 21.3667 17.38C22.2257 16.9118 23.1884 16.6666 24.1667 16.6666C27.7667 16.6666 30 19.8766 30 22.6183V28.3333C30 28.7753 29.8244 29.1993 29.5119 29.5118C29.1993 29.8244 28.7754 30 28.3334 30C27.8913 30 27.4674 29.8244 27.1549 29.5118C26.8423 29.1993 26.6667 28.7753 26.6667 28.3333V22.6166C26.6667 21.3366 25.5667 19.9983 24.1667 19.9983C23.2934 19.9983 22.3284 20.4733 21.6667 21.6033V28.3333C21.6667 28.7753 21.4911 29.1993 21.1786 29.5118C20.866 29.8244 20.4421 30 20 30C19.558 30 19.1341 29.8244 18.8215 29.5118C18.509 29.1993 18.3334 28.7753 18.3334 28.3333V18.3333C18.3334 17.8913 18.509 17.4674 18.8215 17.1548C19.1341 16.8422 19.558 16.6666 20 16.6666Z" fill="white"/>
</svg>
