<svg width="40" height="50" viewBox="0 0 40 50" fill="none" xmlns="http://www.w3.org/2000/svg">
<path fill-rule="evenodd" clip-rule="evenodd" d="M38.12 23.88C38.7333 22.84 39.04 21.8133 39.04 20.8C39.04 20.0533 38.92 19.3733 38.68 18.76C38.92 18.0933 39.04 17.44 39.04 16.8C39.04 15.1733 38.4667 13.92 37.32 13.04C36.3333 12.2933 35.08 11.92 33.56 11.92H22.12C21.6326 11.92 21.1713 11.9721 20.736 12.0763V14.8465C21.1343 14.6288 21.5957 14.52 22.12 14.52H33.56C35.48 14.52 36.44 15.28 36.44 16.8C36.44 17.3333 36.2533 17.92 35.88 18.56L28.1978 31.628L24.64 37.68H28.5235H33.72C34.52 37.68 35.16 37.9333 35.64 38.44C36.1467 38.9467 36.4 39.6 36.4 40.4C36.4 41.2 36.1467 41.8533 35.64 42.36C35.16 42.84 34.52 43.08 33.72 43.08H19.92C19.1467 43.08 18.48 42.8933 17.92 42.52C17.36 42.12 17.08 41.5467 17.08 40.8C17.08 40.4258 17.1445 40.0566 17.2736 39.6923C17.356 39.4595 17.4648 39.2287 17.6 39L19.9011 35.0938L22.402 30.8486L23.63 28.764L28.84 19.92H22.12C21.5957 19.92 21.1343 19.8112 20.736 19.5935V26.3627C21.1104 26.4525 21.5051 26.5049 21.92 26.52L15.36 37.68C14.7733 38.6667 14.48 39.7067 14.48 40.8C14.48 41.4933 14.6133 42.1333 14.88 42.72C14.6133 43.3867 14.48 44.08 14.48 44.8C14.48 46.2933 15.0133 47.48 16.08 48.36C17.1467 49.24 18.4267 49.68 19.92 49.68H33.72C35.24 49.68 36.4933 49.1733 37.48 48.16C38.4933 47.1733 39 45.92 39 44.4C39 43.7067 38.88 43.04 38.64 42.4C38.88 41.76 39 41.0933 39 40.4C39 38.88 38.4933 37.6133 37.48 36.6C36.4933 35.5867 35.24 35.08 33.72 35.08H31.52L38.12 23.88Z" fill="white"/>
<path fill-rule="evenodd" clip-rule="evenodd" d="M28.5235 37.68C28.5398 37.5079 28.548 37.3319 28.548 37.152C28.548 36.504 28.44 35.892 28.224 35.316C28.44 34.764 28.548 34.176 28.548 33.552C28.548 32.8448 28.4313 32.2035 28.1978 31.628L24.64 37.68H28.5235ZM17.2736 39.6923C17.0039 39.4737 16.7421 39.239 16.488 38.988C14.52 37.068 13.536 34.668 13.536 31.788V26.496C12.864 26.616 12.192 26.676 11.52 26.676C10.824 26.676 10.164 26.544 9.54 26.28V29.232C9.54 30.6 9.084 31.728 8.172 32.616C7.26 33.528 6.12 33.984 4.752 33.984C3.384 33.984 2.244 33.528 1.332 32.616C0.444 31.728 0 30.6 0 29.232V11.52C0 8.256 1.104 5.52 3.312 3.312C5.52 1.104 8.256 0 11.52 0C14.784 0 17.52 1.116 19.728 3.348C21.96 5.556 23.076 8.28 23.076 11.52V28.188C23.076 28.572 23.256 28.764 23.616 28.764C23.6207 28.764 23.6253 28.764 23.63 28.764L22.402 30.8486C22.4314 30.8623 22.4611 30.8754 22.491 30.888C22.149 30.744 21.84 30.528 21.564 30.24C21.012 29.688 20.736 29.004 20.736 28.188V26.3627V19.5935V14.8465V12.0763V11.52C20.736 8.904 19.848 6.72 18.072 4.968C16.32 3.216 14.136 2.34 11.52 2.34C8.904 2.34 6.72 3.216 4.968 4.968C3.216 6.72 2.34 8.904 2.34 11.52V25.632C2.34 26.352 2.556 26.94 2.988 27.396C3.444 27.828 4.032 28.044 4.752 28.044C5.472 28.044 6.06 27.828 6.516 27.396C6.972 26.94 7.2 26.352 7.2 25.632V11.52C7.2 10.32 7.62 9.3 8.46 8.46C9.3 7.62 10.32 7.2 11.52 7.2C12.72 7.2 13.74 7.62 14.58 8.46C15.444 9.3 15.876 10.32 15.876 11.52C15.876 12.72 15.444 13.752 14.58 14.616C13.74 15.456 12.72 15.876 11.52 15.876C10.8 15.876 10.212 16.104 9.756 16.56C9.324 16.992 9.108 17.568 9.108 18.288C9.108 19.008 9.324 19.596 9.756 20.052C10.212 20.508 10.8 20.736 11.52 20.736C13.056 20.736 14.508 20.376 15.876 19.656V28.188C15.876 30.396 16.608 32.244 18.072 33.732C18.6309 34.2909 19.2406 34.7449 19.9011 35.0938L17.6 39C17.4648 39.2287 17.356 39.4595 17.2736 39.6923ZM11.52 13.14C11.832 13.14 12.132 13.2 12.42 13.32C11.412 13.584 10.632 13.728 10.08 13.752C10.464 13.344 10.944 13.14 11.52 13.14Z" fill="white"/>
</svg>
