<svg width="40" height="40" viewBox="0 0 40 40" fill="none" xmlns="http://www.w3.org/2000/svg">
<path fill-rule="evenodd" clip-rule="evenodd" d="M3.33337 9.99998C3.33337 8.23187 4.03575 6.53618 5.286 5.28593C6.53624 4.03569 8.23193 3.33331 10 3.33331H30C31.7682 3.33331 33.4638 4.03569 34.7141 5.28593C35.9643 6.53618 36.6667 8.23187 36.6667 9.99998V30C36.6667 31.7681 35.9643 33.4638 34.7141 34.714C33.4638 35.9643 31.7682 36.6666 30 36.6666H10C8.23193 36.6666 6.53624 35.9643 5.286 34.714C4.03575 33.4638 3.33337 31.7681 3.33337 30V9.99998ZM10 6.66665C9.11599 6.66665 8.26814 7.01784 7.64302 7.64296C7.0179 8.26808 6.66671 9.11592 6.66671 9.99998V30C6.66671 30.884 7.0179 31.7319 7.64302 32.357C8.26814 32.9821 9.11599 33.3333 10 33.3333H30C30.8841 33.3333 31.7319 32.9821 32.3571 32.357C32.9822 31.7319 33.3334 30.884 33.3334 30V9.99998C33.3334 9.11592 32.9822 8.26808 32.3571 7.64296C31.7319 7.01784 30.8841 6.66665 30 6.66665H10ZM20 15C18.674 15 17.4022 15.5268 16.4645 16.4644C15.5268 17.4021 15 18.6739 15 20C15 21.3261 15.5268 22.5978 16.4645 23.5355C17.4022 24.4732 18.674 25 20 25C21.3261 25 22.5979 24.4732 23.5356 23.5355C24.4733 22.5978 25 21.3261 25 20C25 18.6739 24.4733 17.4021 23.5356 16.4644C22.5979 15.5268 21.3261 15 20 15ZM11.6667 20C11.6667 17.7898 12.5447 15.6702 14.1075 14.1074C15.6703 12.5446 17.7899 11.6666 20 11.6666C22.2102 11.6666 24.3298 12.5446 25.8926 14.1074C27.4554 15.6702 28.3334 17.7898 28.3334 20C28.3334 22.2101 27.4554 24.3297 25.8926 25.8925C24.3298 27.4553 22.2102 28.3333 20 28.3333C17.7899 28.3333 15.6703 27.4553 14.1075 25.8925C12.5447 24.3297 11.6667 22.2101 11.6667 20ZM29.1667 13.3333C29.8298 13.3333 30.4656 13.0699 30.9345 12.6011C31.4033 12.1322 31.6667 11.4964 31.6667 10.8333C31.6667 10.1703 31.4033 9.53439 30.9345 9.06555C30.4656 8.5967 29.8298 8.33331 29.1667 8.33331C28.5037 8.33331 27.8678 8.5967 27.3989 9.06555C26.9301 9.53439 26.6667 10.1703 26.6667 10.8333C26.6667 11.4964 26.9301 12.1322 27.3989 12.6011C27.8678 13.0699 28.5037 13.3333 29.1667 13.3333Z" fill="white"/>
</svg>
